<?xml version="1.0" encoding="UTF-8" standalone="no"?>
<svg
   xmlns:dc="http://purl.org/dc/elements/1.1/"
   xmlns:cc="http://creativecommons.org/ns#"
   xmlns:rdf="http://www.w3.org/1999/02/22-rdf-syntax-ns#"
   xmlns:svg="http://www.w3.org/2000/svg"
   xmlns="http://www.w3.org/2000/svg"
   xmlns:sodipodi="http://sodipodi.sourceforge.net/DTD/sodipodi-0.dtd"
   xmlns:inkscape="http://www.inkscape.org/namespaces/inkscape"
   width="20"
   height="20"
   viewBox="0 0 20 20"
   fill="none"
   version="1.1"
   id="svg4"
   sodipodi:docname="icone-fechar-preto.svg"
   inkscape:version="1.0.2-2 (e86c870879, 2021-01-15)">
  <metadata
     id="metadata10">
    <rdf:RDF>
      <cc:Work
         rdf:about="">
        <dc:format>image/svg+xml</dc:format>
        <dc:type
           rdf:resource="http://purl.org/dc/dcmitype/StillImage" />
        <dc:title></dc:title>
      </cc:Work>
    </rdf:RDF>
  </metadata>
  <defs
     id="defs8" />
  <sodipodi:namedview
     pagecolor="#ffffff"
     bordercolor="#666666"
     borderopacity="1"
     objecttolerance="10"
     gridtolerance="10"
     guidetolerance="10"
     inkscape:pageopacity="0"
     inkscape:pageshadow="2"
     inkscape:window-width="1920"
     inkscape:window-height="1001"
     id="namedview6"
     showgrid="false"
     inkscape:zoom="35.873841"
     inkscape:cx="10"
     inkscape:cy="10"
     inkscape:window-x="-9"
     inkscape:window-y="-9"
     inkscape:window-maximized="1"
     inkscape:current-layer="svg4" />
  <path
     d="M13.7909 10L19.4767 4.3142C20.1744 3.61648 20.1744 2.48523 19.4767 1.78693L18.2131 0.523295C17.5153 -0.174432 16.3841 -0.174432 15.6858 0.523295L10 6.20909L4.3142 0.523295C3.61648 -0.174432 2.48523 -0.174432 1.78693 0.523295L0.523295 1.78693C-0.174432 2.48466 -0.174432 3.61591 0.523295 4.3142L6.20909 10L0.523295 15.6858C-0.174432 16.3835 -0.174432 17.5148 0.523295 18.2131L1.78693 19.4767C2.48466 20.1744 3.61648 20.1744 4.3142 19.4767L10 13.7909L15.6858 19.4767C16.3835 20.1744 17.5153 20.1744 18.2131 19.4767L19.4767 18.2131C20.1744 17.5153 20.1744 16.3841 19.4767 15.6858L13.7909 10Z"
     fill="white"
     id="path2"
     style="fill:#1a1a1a;fill-opacity:1" />
</svg>
