<?xml version="1.0" encoding="UTF-8" standalone="no"?>
<svg
   xmlns:dc="http://purl.org/dc/elements/1.1/"
   xmlns:cc="http://creativecommons.org/ns#"
   xmlns:rdf="http://www.w3.org/1999/02/22-rdf-syntax-ns#"
   xmlns:svg="http://www.w3.org/2000/svg"
   xmlns="http://www.w3.org/2000/svg"
   xmlns:sodipodi="http://sodipodi.sourceforge.net/DTD/sodipodi-0.dtd"
   xmlns:inkscape="http://www.inkscape.org/namespaces/inkscape"
   width="210mm"
   height="297mm"
   viewBox="0 0 210 297"
   version="1.1"
   id="svg8"
   inkscape:version="1.0.2-2 (e86c870879, 2021-01-15)"
   sodipodi:docname="icone-coracao.svg">
  <defs
     id="defs2" />
  <sodipodi:namedview
     id="base"
     pagecolor="#ffffff"
     bordercolor="#666666"
     borderopacity="1.0"
     inkscape:pageopacity="0.0"
     inkscape:pageshadow="2"
     inkscape:zoom="0.34165563"
     inkscape:cx="43.249484"
     inkscape:cy="548.83765"
     inkscape:document-units="mm"
     inkscape:current-layer="layer1"
     inkscape:document-rotation="0"
     showgrid="false"
     inkscape:window-width="1920"
     inkscape:window-height="1001"
     inkscape:window-x="-9"
     inkscape:window-y="-9"
     inkscape:window-maximized="1" />
  <metadata
     id="metadata5">
    <rdf:RDF>
      <cc:Work
         rdf:about="">
        <dc:format>image/svg+xml</dc:format>
        <dc:type
           rdf:resource="http://purl.org/dc/dcmitype/StillImage" />
        <dc:title></dc:title>
      </cc:Work>
    </rdf:RDF>
  </metadata>
  <g
     inkscape:label="Layer 1"
     inkscape:groupmode="layer"
     id="layer1">
    <path
       style="fill:#ffffff;fill-opacity:1;stroke:none;stroke-width:0.693989"
       d="m 97.766667,221.22607 c -9.79219,18.97713 -24.84897,31.57373 -24.27921,54.82513 0.3928,16.04573 14.06092,28.12807 29.831123,20.88838 17.83969,-8.19046 28.98877,-23.94879 29.50094,-43.14661 2.04603,-11.63585 -3.03207,-32.10923 -1.60882,-29.72848 11.46262,-13.56471 28.94628,-24.17164 42.89477,-35.05617 42.18828,-32.92145 92.11039,-68.06436 109.64957,-121.153822 3.268,-9.890038 5.73652,-21.456753 4.74064,-31.923496 C 287.52479,25.723811 285.40882,16.015599 280.7924,6.783462 248.58298,-57.626703 148.89909,-36.779413 120.66831,19.969254 96.311377,-8.5893639 69.018167,-33.068513 29.755737,-36.820003 c -11.73466,-1.12128 -24.0439397,-0.28385 -35.3934397,2.95479 -47.8923903,13.66659 -68.6342603,66.578188 -57.8409903,112.129547 13.28495,56.067376 76.82714,84.435566 120.994,112.462996 9.10444,5.77746 18.00415,12.0768 26.37158,18.88206 4.59976,3.74129 8.61448,8.88514 13.87978,11.61668 M 16.569947,-13.144084 c 26.91359,-3.17375 57.74891,14.07763504 74.65379,33.807327 7.10784,8.295945 12.055983,17.922267 18.899413,26.371584 2.76832,3.41859 6.53529,7.686622 11.23915,8.149513 4.83988,0.476077 7.90731,-3.788486 10.09546,-7.455524 5.92458,-9.928207 11.05871,-19.586453 18.65512,-28.453551 23.07444,-26.9325389 67.8978,-40.446648 97.49297,-15.878747 4.00987,3.32858 7.45205,7.382933 10.32933,11.714813 22.66152,34.120665 -8.11204,74.840472 -31.78053,98.546439 -5.10429,5.11192 -9.96152,10.28908 -15.26776,15.206 -6.9503,6.44091 -14.23303,12.53691 -21.51366,18.60168 -8.81366,7.34101 -18.10132,14.13725 -27.06558,21.29505 -11.06843,8.83656 -22.32077,17.42884 -33.31147,26.36395 -3.25412,2.64548 -8.9483,9.71515 -13.18579,10.1947 -3.98697,0.45178 -9.67837,-7.65193 -12.49181,-10.06284 -11.191273,-9.58885 -23.002263,-18.3116 -35.393443,-26.29316 -33.50093,-21.57751 -75.6808897,-39.96614 -97.81498,-74.737068 -19.50463,-30.640311 -17.60775,-76.950963 15.23028,-98.0618319 9.5383303,-6.131944 20.2124403,-8.0091241 31.22951,-9.3083341 M 110.25847,244.8217 c 0,9.45213 -2.74264,18.78073 -10.409833,24.9836 0.680113,-8.54439 3.970313,-19.03889 10.409833,-24.9836 z"
       id="path863"
       sodipodi:nodetypes="ccccccccccscssccccccccccccccscccsscccc" />
  </g>
</svg>
