<?xml version="1.0" encoding="UTF-8" standalone="no"?>
<svg
   xmlns:dc="http://purl.org/dc/elements/1.1/"
   xmlns:cc="http://creativecommons.org/ns#"
   xmlns:rdf="http://www.w3.org/1999/02/22-rdf-syntax-ns#"
   xmlns:svg="http://www.w3.org/2000/svg"
   xmlns="http://www.w3.org/2000/svg"
   xmlns:sodipodi="http://sodipodi.sourceforge.net/DTD/sodipodi-0.dtd"
   xmlns:inkscape="http://www.inkscape.org/namespaces/inkscape"
   width="210mm"
   height="297mm"
   viewBox="0 0 210 297"
   version="1.1"
   id="svg8"
   inkscape:version="1.0.2-2 (e86c870879, 2021-01-15)"
   sodipodi:docname="quebra-de-linha.svg">
  <defs
     id="defs2" />
  <sodipodi:namedview
     id="base"
     pagecolor="#4b4b4b"
     bordercolor="#666666"
     borderopacity="1.0"
     inkscape:pageopacity="0"
     inkscape:pageshadow="2"
     inkscape:zoom="0.3335102"
     inkscape:cx="43.249484"
     inkscape:cy="548.83765"
     inkscape:document-units="mm"
     inkscape:current-layer="layer1"
     inkscape:document-rotation="0"
     showgrid="false"
     inkscape:window-width="1920"
     inkscape:window-height="1001"
     inkscape:window-x="-9"
     inkscape:window-y="-9"
     inkscape:window-maximized="1"
     inkscape:pagecheckerboard="false" />
  <metadata
     id="metadata5">
    <rdf:RDF>
      <cc:Work
         rdf:about="">
        <dc:format>image/svg+xml</dc:format>
        <dc:type
           rdf:resource="http://purl.org/dc/dcmitype/StillImage" />
        <dc:title></dc:title>
      </cc:Work>
    </rdf:RDF>
  </metadata>
  <g
     inkscape:label="Layer 1"
     inkscape:groupmode="layer"
     id="layer1">
    <path
       style="fill:#fcf3f8;fill-opacity:1;stroke:none;stroke-width:0.693989"
       d="m -250.50479,137.92652 c -9.79219,18.97713 -24.84897,31.57373 -24.27921,54.82513 0.3928,16.04573 14.06092,28.12807 29.83112,20.88838 17.83969,-8.19046 28.98877,-23.94879 29.50094,-43.14661 2.04603,-11.63585 -3.03207,-32.10923 -1.60882,-29.72848 11.46262,-13.56471 28.94628,-24.17164 42.89477,-35.05617 42.18828,-32.921452 92.11039,-68.064362 109.64957,-121.153824 3.268,-9.890038 5.73652,-21.456753 4.74064,-31.923496 -0.97089,-10.207191 -3.08686,-19.915403 -7.70328,-29.14754 -32.20942,-64.41016 -131.89331,-43.56287 -160.12409,13.185792 -24.35693,-28.558618 -51.65014,-53.037762 -90.91257,-56.789252 -11.73466,-1.12128 -24.04394,-0.28385 -35.39344,2.95479 -47.89239,13.66659 -68.63426,66.578183 -57.84099,112.1295422 13.28495,56.0673758 76.82714,84.4355658 120.994,112.4629978 9.10444,5.77746 18.00415,12.0768 26.37158,18.88206 4.59976,3.74129 8.61448,8.88514 13.87978,11.61668 m -81.19672,-234.370156 c 26.91359,-3.17375 57.74891,14.077635 74.65379,33.807327 7.10784,8.295945 12.05598,17.922267 18.89941,26.371584 2.76832,3.41859 6.53529,7.686622 11.23915,8.149513 4.83988,0.476077 7.90731,-3.788486 10.09546,-7.455524 5.92458,-9.928207 11.05871,-19.586453 18.65512,-28.453551 23.07444,-26.932539 67.8978,-40.446643 97.49297,-15.878747 4.00987,3.32858 7.45205,7.382933 10.32933,11.714813 22.66152,34.120665 -8.11204,74.8404722 -31.78053,98.546439 -5.10429,5.11192 -9.96152,10.28908 -15.26776,15.206 -6.9503,6.44091 -14.23303,12.53691 -21.51366,18.60168 -8.81366,7.34101 -18.10132,14.13725 -27.06558,21.29505 -11.06843,8.83656 -22.32077,17.428842 -33.31147,26.363952 -3.25412,2.64548 -8.9483,9.71515 -13.18579,10.1947 -3.98697,0.45178 -9.67837,-7.65193 -12.49181,-10.06284 -11.19127,-9.58885 -23.00226,-18.311602 -35.39344,-26.293162 -33.50093,-21.57751 -75.68089,-39.96614 -97.81498,-74.737068 -19.50463,-30.640311 -17.60775,-76.950963 15.23028,-98.061832 9.53833,-6.131944 20.21244,-8.009124 31.22951,-9.308334 m 93.68852,257.965786 c 0,9.45213 -2.74264,18.78073 -10.40983,24.9836 0.68011,-8.54439 3.97031,-19.03889 10.40983,-24.9836 z"
       id="path863"
       sodipodi:nodetypes="ccccccccccscssccccccccccccccscccsscccc" />
  </g>
</svg>
